<svg xmlns="http://www.w3.org/2000/svg" viewBox="0 0 36 36" width="36" height="36">
  <path d="M17.9617 36C27.8816 36 35.9233 27.9411 35.9233 18C35.9233 8.05887 27.8816 0 17.9617 0C8.04171 0 0 8.05887 0 18C0 27.9411 8.04171 36 17.9617 36Z" fill="#FF8000"/>
  <path d="M17.9944 0.994736C9.70505 0.994736 2.98505 7.73061 2.98505 16.0384C2.98505 16.8486 3.05101 17.6434 3.17374 18.419C5.1151 13.3373 10.4153 9.68919 16.6536 9.68919C21.8641 9.68919 26.4203 12.2343 28.9124 16.033C28.9277 16.033 28.9423 16.0315 28.9576 16.0315C30.57 16.0315 31.9261 16.5442 32.9363 17.4228C32.9777 16.967 33.0022 16.5058 33.0022 16.0384C33.003 7.73061 26.2838 0.994736 17.9944 0.994736Z" fill="#FFCE00"/>
  <path d="M32.9398 17.421C31.9288 16.5424 30.5727 16.0297 28.9612 16.0297C28.9458 16.0297 28.9312 16.0304 28.9159 16.0312C24.4993 16.0574 19.8534 19.9023 18.5241 24.6427C17.8154 27.1685 18.1912 29.4399 19.3625 31.0157C18.913 31.0565 18.4582 31.0803 17.9979 31.0803C10.517 31.0803 4.31634 25.5943 3.17806 18.4172C2.66645 19.757 2.38495 21.1944 2.38495 22.6925C2.38495 26.3722 4.06475 29.6921 6.76011 32.058C8.42381 33.3909 10.3284 34.4332 12.3994 35.1089C14.152 35.6808 16.0205 35.9936 17.9634 35.9936C23.348 35.9936 28.1757 33.6161 31.4686 29.8542C32.603 28.5583 33.5542 27.0978 34.2828 25.5128C34.3902 25.2261 34.4853 24.9355 34.5682 24.6419C35.415 21.6164 34.7062 18.9568 32.9398 17.421Z" fill="#FF0024"/>
</svg>