<svg viewBox="0 0 101 36" xmlns="http://www.w3.org/2000/svg">
  <path d="M17.9617 36C27.8816 36 35.9233 27.9411 35.9233 18C35.9233 8.05887 27.8816 0 17.9617 0C8.04171 0 0 8.05887 0 18C0 27.9411 8.04171 36 17.9617 36Z" fill="#FF8000"/>
  <path d="M17.9944 0.994736C9.70505 0.994736 2.98505 7.73061 2.98505 16.0384C2.98505 16.8486 3.05101 17.6434 3.17374 18.419C5.1151 13.3373 10.4153 9.68919 16.6536 9.68919C21.8641 9.68919 26.4203 12.2343 28.9124 16.033C28.9277 16.033 28.9423 16.0315 28.9576 16.0315C30.57 16.0315 31.9261 16.5442 32.9363 17.4228C32.9777 16.967 33.0022 16.5058 33.0022 16.0384C33.003 7.73061 26.2838 0.994736 17.9944 0.994736Z" fill="#FFCE00"/>
  <path d="M32.9398 17.421C31.9288 16.5424 30.5727 16.0297 28.9612 16.0297C28.9458 16.0297 28.9312 16.0304 28.9159 16.0312C24.4993 16.0574 19.8534 19.9023 18.5241 24.6427C17.8154 27.1685 18.1912 29.4399 19.3625 31.0157C18.913 31.0565 18.4582 31.0803 17.9979 31.0803C10.517 31.0803 4.31634 25.5943 3.17806 18.4172C2.66645 19.757 2.38495 21.1944 2.38495 22.6925C2.38495 26.3722 4.06475 29.6921 6.76011 32.058C8.42381 33.3909 10.3284 34.4332 12.3994 35.1089C14.152 35.6808 16.0205 35.9936 17.9634 35.9936C23.348 35.9936 28.1757 33.6161 31.4686 29.8542C32.603 28.5583 33.5542 27.0978 34.2828 25.5128C34.3902 25.2261 34.4853 24.9355 34.5682 24.6419C35.415 21.6164 34.7062 18.9568 32.9398 17.421Z" fill="#FF0024"/>
  <path d="M99.6401 22.8338C96.8457 22.8338 95.5594 21.3972 95.5594 18.5969V1.35403H86.9932V14.157C85.0457 9.96701 80.8086 7.0645 75.8896 7.0645C70.9706 7.0645 66.7334 9.96701 64.7859 14.157V7.32278H56.3301V19.3709C56.3301 21.5448 55.1903 23.0183 53.2789 23.0183C51.3674 23.0183 50.2276 21.5448 50.2276 19.3709V7.32278H41.6606V19.4816C41.6606 26.9239 46.2198 31.6036 53.2789 31.6036C58.9457 31.6036 62.9911 28.4513 64.3165 23.3473C65.9741 28.1538 70.5272 31.6036 75.8896 31.6036C81.1806 31.6036 85.6846 28.2453 87.3959 23.5379C88.6576 29.0009 92.7835 31.4199 98.3169 31.4199H100.486V22.8338H99.6401ZM75.8896 23.0183C73.8676 23.0183 72.2132 21.3603 72.2132 19.3341C72.2132 17.3078 73.8676 15.6498 75.8896 15.6498C77.9115 15.6498 79.566 17.3078 79.566 19.3341C79.566 21.3603 77.9115 23.0183 75.8896 23.0183Z" fill="black"/>
</svg>
