<svg xmlns="http://www.w3.org/2000/svg" style="width: 0; height: 0; overflow: hidden">
    <symbol id="icons-close-line" viewBox="0 0 24 24">
        <path
            d="M12.0007 10.5865L16.9504 5.63672L18.3646 7.05093L13.4149 12.0007L18.3646 16.9504L16.9504 18.3646L12.0007 13.4149L7.05093 18.3646L5.63672 16.9504L10.5865 12.0007L5.63672 7.05093L7.05093 5.63672L12.0007 10.5865Z"
        ></path>
    </symbol>
    <symbol id="logos-uol" viewBox="0 0 101 36">
        <path
            d="M17.9617 36C27.8816 36 35.9233 27.9411 35.9233 18C35.9233 8.05887 27.8816 0 17.9617 0C8.04171 0 0 8.05887 0 18C0 27.9411 8.04171 36 17.9617 36Z"
            fill="#FF8000"
        ></path>
        <path
            d="M17.9944 0.994736C9.70505 0.994736 2.98505 7.73061 2.98505 16.0384C2.98505 16.8486 3.05101 17.6434 3.17374 18.419C5.1151 13.3373 10.4153 9.68919 16.6536 9.68919C21.8641 9.68919 26.4203 12.2343 28.9124 16.033C28.9277 16.033 28.9423 16.0315 28.9576 16.0315C30.57 16.0315 31.9261 16.5442 32.9363 17.4228C32.9777 16.967 33.0022 16.5058 33.0022 16.0384C33.003 7.73061 26.2838 0.994736 17.9944 0.994736Z"
            fill="#FFCE00"
        ></path>
        <path
            d="M32.9398 17.421C31.9288 16.5424 30.5727 16.0297 28.9612 16.0297C28.9458 16.0297 28.9312 16.0304 28.9159 16.0312C24.4993 16.0574 19.8534 19.9023 18.5241 24.6427C17.8154 27.1685 18.1912 29.4399 19.3625 31.0157C18.913 31.0565 18.4582 31.0803 17.9979 31.0803C10.517 31.0803 4.31634 25.5943 3.17806 18.4172C2.66645 19.757 2.38495 21.1944 2.38495 22.6925C2.38495 26.3722 4.06475 29.6921 6.76011 32.058C8.42381 33.3909 10.3284 34.4332 12.3994 35.1089C14.152 35.6808 16.0205 35.9936 17.9634 35.9936C23.348 35.9936 28.1757 33.6161 31.4686 29.8542C32.603 28.5583 33.5542 27.0978 34.2828 25.5128C34.3902 25.2261 34.4853 24.9355 34.5682 24.6419C35.415 21.6164 34.7062 18.9568 32.9398 17.421Z"
            fill="#FF0024"
        ></path>
        <path
            d="M99.6401 22.8338C96.8457 22.8338 95.5594 21.3972 95.5594 18.5969V1.35403H86.9932V14.157C85.0457 9.96701 80.8086 7.0645 75.8896 7.0645C70.9706 7.0645 66.7334 9.96701 64.7859 14.157V7.32278H56.3301V19.3709C56.3301 21.5448 55.1903 23.0183 53.2789 23.0183C51.3674 23.0183 50.2276 21.5448 50.2276 19.3709V7.32278H41.6606V19.4816C41.6606 26.9239 46.2198 31.6036 53.2789 31.6036C58.9457 31.6036 62.9911 28.4513 64.3165 23.3473C65.9741 28.1538 70.5272 31.6036 75.8896 31.6036C81.1806 31.6036 85.6846 28.2453 87.3959 23.5379C88.6576 29.0009 92.7835 31.4199 98.3169 31.4199H100.486V22.8338H99.6401ZM75.8896 23.0183C73.8676 23.0183 72.2132 21.3603 72.2132 19.3341C72.2132 17.3078 73.8676 15.6498 75.8896 15.6498C77.9115 15.6498 79.566 17.3078 79.566 19.3341C79.566 21.3603 77.9115 23.0183 75.8896 23.0183Z"
            fill="black"
        ></path>
    </symbol>
    <symbol id="icons-menu-2-line" viewBox="0 0 24 24">
        <path d="M3 4H21V6H3V4ZM3 11H15V13H3V11ZM3 18H21V20H3V18Z"></path>
    </symbol>
    <symbol id="icons-shield-cross-line" viewBox="0 0 24 24">
        <path
            d="M3.78307 2.82598L12 1L20.2169 2.82598C20.6745 2.92766 21 3.33347 21 3.80217V13.7889C21 15.795 19.9974 17.6684 18.3282 18.7812L12 23L5.6718 18.7812C4.00261 17.6684 3 15.795 3 13.7889V3.80217C3 3.33347 3.32553 2.92766 3.78307 2.82598ZM5 4.60434V13.7889C5 15.1263 5.6684 16.3752 6.7812 17.1171L12 20.5963L17.2188 17.1171C18.3316 16.3752 19 15.1263 19 13.7889V4.60434L12 3.04879L5 4.60434ZM11 10V7H13V10H16V12H13V15H11V12H8V10H11Z"
        ></path>
    </symbol>
    <symbol id="icons-moon-clear-line" viewBox="0 0 24 24">
        <path
            d="M10 6C10 10.4183 13.5817 14 18 14C19.4386 14 20.7885 13.6203 21.9549 12.9556C21.4738 18.0302 17.2005 22 12 22C6.47715 22 2 17.5228 2 12C2 6.79948 5.9698 2.52616 11.0444 2.04507C10.3797 3.21152 10 4.56142 10 6ZM4 12C4 16.4183 7.58172 20 12 20C14.9654 20 17.5757 18.3788 18.9571 15.9546C18.6407 15.9848 18.3214 16 18 16C12.4772 16 8 11.5228 8 6C8 5.67863 8.01524 5.35933 8.04536 5.04293C5.62119 6.42426 4 9.03458 4 12ZM18.1642 2.29104L19 2.5V3.5L18.1642 3.70896C17.4476 3.8881 16.8881 4.4476 16.709 5.16417L16.5 6H15.5L15.291 5.16417C15.1119 4.4476 14.5524 3.8881 13.8358 3.70896L13 3.5V2.5L13.8358 2.29104C14.5524 2.1119 15.1119 1.5524 15.291 0.835829L15.5 0H16.5L16.709 0.835829C16.8881 1.5524 17.4476 2.1119 18.1642 2.29104ZM23.1642 7.29104L24 7.5V8.5L23.1642 8.70896C22.4476 8.8881 21.8881 9.4476 21.709 10.1642L21.5 11H20.5L20.291 10.1642C20.1119 9.4476 19.5524 8.8881 18.8358 8.70896L18 8.5V7.5L18.8358 7.29104C19.5524 7.1119 20.1119 6.5524 20.291 5.83583L20.5 5H21.5L21.709 5.83583C21.8881 6.5524 22.4476 7.1119 23.1642 7.29104Z"
        ></path>
    </symbol>
    <symbol id="icons-arrow-up-line" viewBox="0 0 24 24">
        <path
            d="M12.9999 7.82843V20H10.9999V7.82843L5.63589 13.1924L4.22168 11.7782L11.9999 4L19.778 11.7782L18.3638 13.1924L12.9999 7.82843Z"
        ></path>
    </symbol>
    <symbol id="icons-user-line" viewBox="0 0 24 24">
        <path
            d="M4 22C4 17.5817 7.58172 14 12 14C16.4183 14 20 17.5817 20 22H18C18 18.6863 15.3137 16 12 16C8.68629 16 6 18.6863 6 22H4ZM12 13C8.685 13 6 10.315 6 7C6 3.685 8.685 1 12 1C15.315 1 18 3.685 18 7C18 10.315 15.315 13 12 13ZM12 11C14.21 11 16 9.21 16 7C16 4.79 14.21 3 12 3C9.79 3 8 4.79 8 7C8 9.21 9.79 11 12 11Z"
        ></path>
    </symbol>
    <symbol id="icons-whatsapp-line" viewBox="0 0 24 24">
        <path
            d="M7.25361 18.4944L7.97834 18.917C9.18909 19.623 10.5651 20 12.001 20C16.4193 20 20.001 16.4183 20.001 12C20.001 7.58172 16.4193 4 12.001 4C7.5827 4 4.00098 7.58172 4.00098 12C4.00098 13.4363 4.37821 14.8128 5.08466 16.0238L5.50704 16.7478L4.85355 19.1494L7.25361 18.4944ZM2.00516 22L3.35712 17.0315C2.49494 15.5536 2.00098 13.8345 2.00098 12C2.00098 6.47715 6.47813 2 12.001 2C17.5238 2 22.001 6.47715 22.001 12C22.001 17.5228 17.5238 22 12.001 22C10.1671 22 8.44851 21.5064 6.97086 20.6447L2.00516 22ZM8.39232 7.30833C8.5262 7.29892 8.66053 7.29748 8.79459 7.30402C8.84875 7.30758 8.90265 7.31384 8.95659 7.32007C9.11585 7.33846 9.29098 7.43545 9.34986 7.56894C9.64818 8.24536 9.93764 8.92565 10.2182 9.60963C10.2801 9.76062 10.2428 9.95633 10.125 10.1457C10.0652 10.2428 9.97128 10.379 9.86248 10.5183C9.74939 10.663 9.50599 10.9291 9.50599 10.9291C9.50599 10.9291 9.40738 11.0473 9.44455 11.1944C9.45903 11.25 9.50521 11.331 9.54708 11.3991C9.57027 11.4368 9.5918 11.4705 9.60577 11.4938C9.86169 11.9211 10.2057 12.3543 10.6259 12.7616C10.7463 12.8783 10.8631 12.9974 10.9887 13.108C11.457 13.5209 11.9868 13.8583 12.559 14.1082L12.5641 14.1105C12.6486 14.1469 12.692 14.1668 12.8157 14.2193C12.8781 14.2457 12.9419 14.2685 13.0074 14.2858C13.0311 14.292 13.0554 14.2955 13.0798 14.2972C13.2415 14.3069 13.335 14.2032 13.3749 14.1555C14.0984 13.279 14.1646 13.2218 14.1696 13.2222V13.2238C14.2647 13.1236 14.4142 13.0888 14.5476 13.097C14.6085 13.1007 14.6691 13.1124 14.7245 13.1377C15.2563 13.3803 16.1258 13.7587 16.1258 13.7587L16.7073 14.0201C16.8047 14.0671 16.8936 14.1778 16.8979 14.2854C16.9005 14.3523 16.9077 14.4603 16.8838 14.6579C16.8525 14.9166 16.7738 15.2281 16.6956 15.3913C16.6406 15.5058 16.5694 15.6074 16.4866 15.6934C16.3743 15.81 16.2909 15.8808 16.1559 15.9814C16.0737 16.0426 16.0311 16.0714 16.0311 16.0714C15.8922 16.159 15.8139 16.2028 15.6484 16.2909C15.391 16.428 15.1066 16.5068 14.8153 16.5218C14.6296 16.5313 14.4444 16.5447 14.2589 16.5347C14.2507 16.5342 13.6907 16.4482 13.6907 16.4482C12.2688 16.0742 10.9538 15.3736 9.85034 14.402C9.62473 14.2034 9.4155 13.9885 9.20194 13.7759C8.31288 12.8908 7.63982 11.9364 7.23169 11.0336C7.03043 10.5884 6.90299 10.1116 6.90098 9.62098C6.89729 9.01405 7.09599 8.4232 7.46569 7.94186C7.53857 7.84697 7.60774 7.74855 7.72709 7.63586C7.85348 7.51651 7.93392 7.45244 8.02057 7.40811C8.13607 7.34902 8.26293 7.31742 8.39232 7.30833Z"
        ></path>
    </symbol>
    <symbol id="icons-facebook-box-line" viewBox="0 0 24 24">
        <path
            d="M14 19H19V5H5V19H12V14H10V12H12V10.3458C12 9.00855 12.1392 8.52362 12.4007 8.03473C12.6622 7.54584 13.0458 7.16216 13.5347 6.9007C13.9174 6.69604 14.3922 6.57252 15.2217 6.51954C15.551 6.49851 15.9771 6.52533 16.5 6.6V8.5H16C15.0827 8.5 14.7042 8.54332 14.4779 8.66433C14.3376 8.73939 14.2394 8.83758 14.1643 8.97793C14.0433 9.20418 14 9.42853 14 10.3458V12H16.5L16 14H14V19ZM4 3H20C20.5523 3 21 3.44772 21 4V20C21 20.5523 20.5523 21 20 21H4C3.44772 21 3 20.5523 3 20V4C3 3.44772 3.44772 3 4 3Z"
        ></path>
    </symbol>
    <symbol id="icons-pinterest-line" viewBox="0 0 24 24">
        <path
            d="M8.49161 19.1912C8.51535 18.8546 8.56306 18.5199 8.63456 18.1897C8.69754 17.8951 8.88867 17.0596 9.16872 15.8498L9.17581 15.8191C9.29895 15.2872 9.43089 14.7192 9.56283 14.1525C9.64199 13.8124 9.70356 13.5484 9.74438 13.4602C9.55012 13.0123 9.45298 12.5263 9.45969 12.0373C9.45969 10.6999 10.2157 9.66359 11.1958 9.6636C11.5555 9.65809 11.8996 9.81388 12.1383 10.09C12.3764 10.3655 12.4863 10.7335 12.4404 11.086C12.4404 11.5385 12.3548 11.8844 11.9865 13.1212C11.9158 13.3587 11.8674 13.5254 11.8215 13.692C11.7696 13.8799 11.7261 14.0503 11.6887 14.2136C11.5928 14.6003 11.6811 15.011 11.9262 15.3195C12.1707 15.6272 12.5421 15.7966 12.9319 15.7762C14.4242 15.7762 15.5321 13.7911 15.5321 11.2277C15.5321 9.25804 14.2412 7.95424 12.1 7.95416C11.0224 7.91127 9.97466 8.32523 9.20095 9.09986C8.42664 9.87508 7.99452 10.9437 8.00559 12.0614C7.98214 12.6633 8.17064 13.2536 8.51804 13.7053C8.69915 13.8441 8.76869 14.0885 8.69262 14.2941C8.65157 14.4632 8.55259 14.8473 8.51649 14.9755C8.49464 15.1032 8.41497 15.2131 8.30126 15.2715C8.18678 15.3303 8.05172 15.3297 7.94618 15.2737C6.78507 14.7954 6.14967 13.4963 6.14967 11.8349C6.14967 8.84907 8.64129 6.2497 12.3417 6.2497C15.4772 6.2497 17.8231 8.57864 17.8231 11.3896C17.8231 14.922 15.8911 17.4942 13.1337 17.4942C12.3393 17.5202 11.5838 17.162 11.087 16.535L11.044 16.712C10.9499 17.0992 10.9028 17.2928 10.8368 17.5638L10.8349 17.5715C10.6887 18.1717 10.5867 18.5885 10.5471 18.7452C10.4412 19.0998 10.307 19.448 10.1471 19.7841C10.7421 19.9253 11.3628 20 12.001 20C16.4193 20 20.001 16.4183 20.001 12C20.001 7.58172 16.4193 4 12.001 4C7.5827 4 4.00098 7.58172 4.00098 12C4.00098 15.1594 5.83244 17.8911 8.49161 19.1912ZM12.001 22C6.47813 22 2.00098 17.5228 2.00098 12C2.00098 6.47715 6.47813 2 12.001 2C17.5238 2 22.001 6.47715 22.001 12C22.001 17.5228 17.5238 22 12.001 22Z"
        ></path>
    </symbol>
    <symbol id="icons-linkedin-box-line" viewBox="0 0 24 24">
        <path
            d="M4.00098 3H20.001C20.5533 3 21.001 3.44772 21.001 4V20C21.001 20.5523 20.5533 21 20.001 21H4.00098C3.44869 21 3.00098 20.5523 3.00098 20V4C3.00098 3.44772 3.44869 3 4.00098 3ZM5.00098 5V19H19.001V5H5.00098ZM7.50098 9C6.67255 9 6.00098 8.32843 6.00098 7.5C6.00098 6.67157 6.67255 6 7.50098 6C8.3294 6 9.00098 6.67157 9.00098 7.5C9.00098 8.32843 8.3294 9 7.50098 9ZM6.50098 10H8.50098V17.5H6.50098V10ZM12.001 10.4295C12.5854 9.86534 13.2665 9.5 14.001 9.5C16.072 9.5 17.501 11.1789 17.501 13.25V17.5H15.501V13.25C15.501 12.2835 14.7175 11.5 13.751 11.5C12.7845 11.5 12.001 12.2835 12.001 13.25V17.5H10.001V10H12.001V10.4295Z"
        ></path>
    </symbol>
    <symbol id="logos-appstore" viewBox="0 0 138 40">
        <path
            d="M136.356 34.7884C136.356 36.884 134.623 38.5816 132.48 38.5816H5.62552C3.48313 38.5816 1.74414 36.884 1.74414 34.7884V4.53887C1.74414 2.44419 3.48313 0.740723 5.62552 0.740723H132.479C134.623 0.740723 136.355 2.44419 136.355 4.53887L136.356 34.7884Z"
            fill="#202020"
        ></path>
        <path
            d="M132.069 0.787719C134.403 0.787719 136.303 2.63967 136.303 4.9156V34.4092C136.303 36.6851 134.403 38.5371 132.069 38.5371H6.02797C3.69369 38.5371 1.79425 36.6851 1.79425 34.4092V4.9156C1.79425 2.63967 3.69369 0.787719 6.02797 0.787719H132.069ZM132.069 -4.76107e-06H6.02797C3.25633 -4.76107e-06 0.986328 2.21324 0.986328 4.9156V34.4092C0.986328 37.1115 3.25633 39.3248 6.02797 39.3248H132.069C134.841 39.3248 137.111 37.1115 137.111 34.4092V4.9156C137.111 2.21324 134.841 -4.76107e-06 132.069 -4.76107e-06Z"
            fill="#A6A6A6"
        ></path>
        <path
            d="M31.3652 19.4508C31.336 16.2822 34.0262 14.7407 34.1492 14.6689C32.6257 12.5031 30.2641 12.2072 29.4343 12.1836C27.4509 11.9801 25.527 13.3407 24.5167 13.3407C23.4862 13.3407 21.9303 12.2032 20.2535 12.2366C18.0956 12.2691 16.077 13.4872 14.9698 15.3787C12.685 19.2355 14.389 24.9032 16.5781 28.0206C17.6732 29.5474 18.9527 31.2522 20.6276 31.1922C22.2661 31.1263 22.8781 30.1737 24.8555 30.1737C26.8147 30.1737 27.3894 31.1922 29.0975 31.1538C30.856 31.1263 31.9632 29.6202 33.0199 28.0796C34.2854 26.3297 34.7936 24.6063 34.8137 24.5178C34.7724 24.504 31.3985 23.2486 31.3652 19.4508Z"
            fill="white"
        ></path>
        <path
            d="M28.1386 10.1328C29.0199 9.05822 29.6228 7.59632 29.4555 6.11279C28.1799 6.16785 26.5848 6.97302 25.6662 8.02398C24.8535 8.95008 24.1275 10.468 24.315 11.8955C25.7478 11.9997 27.219 11.1906 28.1386 10.1328Z"
            fill="white"
        ></path>
        <path
            d="M55.0805 30.9678H52.7906L51.5362 27.1248H47.1762L45.9814 30.9678H43.752L48.0716 17.8844H50.7397L55.0805 30.9678ZM51.1581 25.5124L50.0238 22.0961C49.9038 21.7471 49.6789 20.9252 49.3472 19.6314H49.3068C49.1747 20.1879 48.962 21.0098 48.6696 22.0961L47.5554 25.5124H51.1581Z"
            fill="white"
        ></path>
        <path
            d="M66.1871 26.1331C66.1871 27.7376 65.7424 29.0058 64.8531 29.9368C64.0565 30.7656 63.0673 31.1795 61.8866 31.1795C60.6121 31.1795 59.6965 30.7332 59.1389 29.8405H59.0986V34.8102H56.9488V24.6378C56.9488 23.6291 56.9216 22.5939 56.8691 21.5321H58.7598L58.8797 23.0275H58.9201C59.637 21.9008 60.725 21.3385 62.185 21.3385C63.3265 21.3385 64.2793 21.7779 65.0416 22.6578C65.806 23.5387 66.1871 24.6968 66.1871 26.1331ZM63.997 26.2098C63.997 25.2916 63.7853 24.5346 63.3597 23.9388C62.8949 23.3175 62.2708 23.0068 61.4883 23.0068C60.9579 23.0068 60.4759 23.1799 60.0454 23.521C59.6138 23.8651 59.3315 24.3144 59.1994 24.8708C59.1328 25.1304 59.0996 25.3427 59.0996 25.5098V27.0828C59.0996 27.7691 59.3153 28.3481 59.7469 28.821C60.1785 29.2939 60.7391 29.5298 61.4288 29.5298C62.2385 29.5298 62.8687 29.2251 63.3194 28.6175C63.7711 28.0089 63.997 27.2067 63.997 26.2098Z"
            fill="white"
        ></path>
        <path
            d="M77.3189 26.1331C77.3189 27.7376 76.8742 29.0058 75.9839 29.9368C75.1883 30.7656 74.1991 31.1795 73.0184 31.1795C71.7439 31.1795 70.8283 30.7332 70.2717 29.8405H70.2314V34.8102H68.0816V24.6378C68.0816 23.6291 68.0544 22.5939 68.002 21.5321H69.8926L70.0126 23.0275H70.0529C70.7688 21.9008 71.8568 21.3385 73.3179 21.3385C74.4583 21.3385 75.4112 21.7779 76.1755 22.6578C76.9368 23.5387 77.3189 24.6968 77.3189 26.1331ZM75.1288 26.2098C75.1288 25.2916 74.9161 24.5346 74.4905 23.9388C74.0257 23.3175 73.4036 23.0068 72.6201 23.0068C72.0887 23.0068 71.6077 23.1799 71.1762 23.521C70.7446 23.8651 70.4633 24.3144 70.3312 24.8708C70.2656 25.1304 70.2314 25.3427 70.2314 25.5098V27.0828C70.2314 27.7691 70.4471 28.3481 70.8767 28.821C71.3083 29.2929 71.8689 29.5298 72.5606 29.5298C73.3703 29.5298 74.0005 29.2251 74.4512 28.6175C74.903 28.0089 75.1288 27.2067 75.1288 26.2098Z"
            fill="white"
        ></path>
        <path
            d="M89.7603 27.3C89.7603 28.4129 89.364 29.3184 88.5685 30.0174C87.6942 30.7812 86.4772 31.1627 84.9133 31.1627C83.4693 31.1627 82.3118 30.8913 81.4355 30.3477L81.9337 28.6007C82.8775 29.1571 83.913 29.4363 85.0413 29.4363C85.851 29.4363 86.4812 29.2574 86.934 28.9015C87.3847 28.5456 87.6095 28.0678 87.6095 27.4721C87.6095 26.9412 87.424 26.4938 87.0519 26.1311C86.6819 25.7683 86.0638 25.4311 85.2006 25.1194C82.8512 24.2651 81.6776 23.0136 81.6776 21.3679C81.6776 20.2923 82.0889 19.4105 82.9128 18.7242C83.7335 18.037 84.8286 17.6939 86.1979 17.6939C87.419 17.6939 88.4333 17.9014 89.243 18.3153L88.7056 20.0239C87.9493 19.6228 87.0943 19.4223 86.1374 19.4223C85.3811 19.4223 84.7903 19.6041 84.3668 19.9659C84.0088 20.2894 83.8293 20.6836 83.8293 21.1506C83.8293 21.6677 84.034 22.0954 84.4454 22.4316C84.8034 22.7423 85.4537 23.0785 86.3975 23.4413C87.5521 23.8945 88.4001 24.4244 88.9456 25.0319C89.4891 25.6376 89.7603 26.3955 89.7603 27.3Z"
            fill="white"
        ></path>
        <path
            d="M96.8673 23.1068H94.4977V27.6872C94.4977 28.8522 94.9152 29.4342 95.7521 29.4342C96.1362 29.4342 96.4549 29.4017 96.707 29.3369L96.7664 30.9285C96.3429 31.0829 95.7853 31.1605 95.0946 31.1605C94.2456 31.1605 93.5821 30.9079 93.1032 30.4035C92.6263 29.8982 92.3863 29.0508 92.3863 27.8602V23.1049H90.9746V21.5319H92.3863V19.8045L94.4977 19.1832V21.5319H96.8673V23.1068Z"
            fill="white"
        ></path>
        <path
            d="M107.557 26.1725C107.557 27.6226 107.132 28.8131 106.283 29.7441C105.392 30.7027 104.211 31.1805 102.738 31.1805C101.318 31.1805 100.187 30.7214 99.3445 29.8031C98.5016 28.8849 98.0801 27.7258 98.0801 26.3288C98.0801 24.8669 98.5137 23.6694 99.3838 22.7384C100.252 21.8064 101.424 21.3404 102.897 21.3404C104.317 21.3404 105.459 21.7995 106.321 22.7188C107.146 23.6104 107.557 24.7617 107.557 26.1725ZM105.327 26.2403C105.327 25.3702 105.136 24.624 104.75 24.0017C104.299 23.2487 103.655 22.8731 102.82 22.8731C101.956 22.8731 101.3 23.2496 100.849 24.0017C100.463 24.625 100.272 25.383 100.272 26.2796C100.272 27.1497 100.463 27.8959 100.849 28.5172C101.314 29.2703 101.963 29.6458 102.801 29.6458C103.622 29.6458 104.266 29.2624 104.731 28.4975C105.127 27.8634 105.327 27.1094 105.327 26.2403Z"
            fill="white"
        ></path>
        <path
            d="M114.546 23.3755C114.333 23.3372 114.106 23.3175 113.868 23.3175C113.112 23.3175 112.527 23.5957 112.116 24.1531C111.758 24.6447 111.578 25.266 111.578 26.0162V30.9662H109.43L109.45 24.5031C109.45 23.4158 109.423 22.4258 109.369 21.5331H111.242L111.32 23.3381H111.38C111.607 22.7178 111.965 22.2184 112.455 21.8438C112.934 21.5066 113.451 21.3385 114.008 21.3385C114.207 21.3385 114.387 21.3522 114.546 21.3768V23.3755Z"
            fill="white"
        ></path>
        <path
            d="M124.16 25.8068C124.16 26.1824 124.134 26.499 124.081 26.7575H117.632C117.657 27.6895 117.968 28.4023 118.567 28.8938C119.111 29.3333 119.814 29.5535 120.677 29.5535C121.632 29.5535 122.503 29.4051 123.286 29.1072L123.623 30.5622C122.708 30.9515 121.627 31.1452 120.379 31.1452C118.879 31.1452 117.701 30.7146 116.844 29.8543C115.989 28.9941 115.561 27.8389 115.561 26.3898C115.561 24.9673 115.959 23.7826 116.756 22.8378C117.591 21.8291 118.72 21.3248 120.139 21.3248C121.534 21.3248 122.59 21.8291 123.307 22.8378C123.874 23.6391 124.16 24.63 124.16 25.8068ZM122.11 25.2632C122.124 24.6418 121.984 24.1051 121.692 23.6518C121.32 23.0689 120.748 22.7778 119.979 22.7778C119.276 22.7778 118.705 23.062 118.268 23.6322C117.91 24.0854 117.697 24.6291 117.632 25.2622H122.11V25.2632Z"
            fill="white"
        ></path>
        <path
            d="M50.4442 9.83861C50.4442 10.9957 50.0882 11.8668 49.3773 12.4517C48.7189 12.9915 47.7832 13.2618 46.5712 13.2618C45.9702 13.2618 45.4559 13.2363 45.0254 13.1852V6.86271C45.587 6.77423 46.192 6.729 46.8454 6.729C48 6.729 48.8702 6.9738 49.457 7.46339C50.1144 8.01689 50.4442 8.8083 50.4442 9.83861ZM49.3299 9.86712C49.3299 9.117 49.1263 8.54188 48.7189 8.14076C48.3115 7.74063 47.7166 7.54008 46.9332 7.54008C46.6004 7.54008 46.3171 7.56171 46.0821 7.60693V12.4134C46.2122 12.4331 46.4502 12.4419 46.796 12.4419C47.6047 12.4419 48.2289 12.2227 48.6685 11.7842C49.1081 11.3457 49.3299 10.7067 49.3299 9.86712Z"
            fill="white"
        ></path>
        <path
            d="M56.3527 10.8533C56.3527 11.566 56.144 12.15 55.7265 12.6081C55.2889 13.0791 54.7091 13.314 53.9852 13.314C53.2874 13.314 52.7318 13.0889 52.3174 12.6367C51.904 12.1854 51.6973 11.6162 51.6973 10.93C51.6973 10.2123 51.91 9.62339 52.3375 9.16624C52.7651 8.70909 53.3398 8.48003 54.0638 8.48003C54.7616 8.48003 55.3222 8.70516 55.7467 9.15641C56.15 9.59488 56.3527 10.1612 56.3527 10.8533ZM55.2567 10.8867C55.2567 10.459 55.1619 10.0923 54.9733 9.78659C54.7515 9.41694 54.4359 9.23211 54.0255 9.23211C53.601 9.23211 53.2783 9.41694 53.0565 9.78659C52.8669 10.0923 52.7731 10.4649 52.7731 10.9054C52.7731 11.333 52.8679 11.6997 53.0565 12.0055C53.2854 12.3751 53.604 12.56 54.0154 12.56C54.4187 12.56 54.7353 12.3722 54.9632 11.9957C55.1588 11.684 55.2567 11.3144 55.2567 10.8867Z"
            fill="white"
        ></path>
        <path
            d="M64.2716 8.57373L62.7844 13.2082H61.8164L61.2003 11.1957C61.044 10.6933 60.9169 10.1939 60.8181 9.69842H60.799C60.7072 10.2077 60.5802 10.7061 60.4168 11.1957L59.7624 13.2082H58.7833L57.3848 8.57373H58.4707L59.0082 10.7769C59.1382 11.298 59.2451 11.7944 59.3308 12.2644H59.35C59.4286 11.877 59.5587 11.3835 59.7422 10.7867L60.4168 8.57471H61.2779L61.9243 10.7395C62.0805 11.2675 62.2076 11.7758 62.3054 12.2653H62.3346C62.4062 11.7885 62.5141 11.2803 62.6573 10.7395L63.2341 8.57471H64.2716V8.57373Z"
            fill="white"
        ></path>
        <path
            d="M69.7543 13.2088H68.6976V10.5544C68.6976 9.73643 68.3789 9.32745 67.7397 9.32745C67.4261 9.32745 67.173 9.43953 66.9764 9.66466C66.7817 9.88979 66.6829 10.1552 66.6829 10.459V13.2078H65.6262V9.89864C65.6262 9.49163 65.6131 9.05021 65.5879 8.57241H66.5166L66.566 9.29697H66.5952C66.7182 9.07184 66.9017 8.88603 67.1427 8.73758C67.4291 8.56455 67.7497 8.47705 68.1006 8.47705C68.5443 8.47705 68.9133 8.61665 69.2068 8.89684C69.5718 9.23995 69.7543 9.75216 69.7543 10.4325V13.2088Z"
            fill="white"
        ></path>
        <path d="M72.667 13.2077H71.6113V6.44678H72.667V13.2077Z" fill="white"></path>
        <path
            d="M78.884 10.8532C78.884 11.566 78.6752 12.15 78.2578 12.6081C77.8202 13.079 77.2394 13.314 76.5164 13.314C75.8176 13.314 75.2621 13.0888 74.8486 12.6366C74.4352 12.1854 74.2285 11.6161 74.2285 10.9299C74.2285 10.2122 74.4413 9.62335 74.8688 9.1662C75.2963 8.70905 75.8711 8.47998 76.5941 8.47998C77.2928 8.47998 77.8524 8.70511 78.278 9.15637C78.6813 9.59484 78.884 10.1611 78.884 10.8532ZM77.7869 10.8867C77.7869 10.459 77.6921 10.0923 77.5036 9.78655C77.2827 9.41689 76.9661 9.23207 76.5567 9.23207C76.1312 9.23207 75.8086 9.41689 75.5877 9.78655C75.3982 10.0923 75.3044 10.4649 75.3044 10.9053C75.3044 11.333 75.3992 11.6997 75.5877 12.0054C75.8166 12.3751 76.1353 12.5599 76.5467 12.5599C76.95 12.5599 77.2656 12.3722 77.4935 11.9956C77.6901 11.684 77.7869 11.3143 77.7869 10.8867Z"
            fill="white"
        ></path>
        <path
            d="M83.9979 13.2088H83.0491L82.9704 12.675H82.9412C82.6165 13.1006 82.1537 13.314 81.5527 13.314C81.104 13.314 80.741 13.1734 80.4678 12.8942C80.2197 12.6405 80.0957 12.325 80.0957 11.9504C80.0957 11.3841 80.3377 10.9525 80.8247 10.6537C81.3107 10.3548 81.9944 10.2083 82.8747 10.2152V10.1287C82.8747 9.51815 82.5459 9.21339 81.8875 9.21339C81.4186 9.21339 81.0052 9.32841 80.6483 9.5565L80.4335 8.88011C80.8751 8.61368 81.4206 8.47998 82.064 8.47998C83.3062 8.47998 83.9294 9.11901 83.9294 10.3971V12.1038C83.9294 12.5668 83.9526 12.9355 83.9979 13.2088ZM82.9009 11.6161V10.9014C81.7352 10.8817 81.1524 11.1934 81.1524 11.8354C81.1524 12.0772 81.219 12.2581 81.3551 12.379C81.4912 12.5 81.6647 12.5599 81.8714 12.5599C82.1033 12.5599 82.3201 12.4882 82.5177 12.3456C82.7163 12.2021 82.8384 12.0202 82.8837 11.797C82.8948 11.7469 82.9009 11.6859 82.9009 11.6161Z"
            fill="white"
        ></path>
        <path
            d="M90.0082 13.2077H89.0704L89.021 12.4635H88.9918C88.6923 13.0297 88.1821 13.3129 87.4652 13.3129C86.8924 13.3129 86.4155 13.0937 86.0374 12.6552C85.6593 12.2167 85.4707 11.6475 85.4707 10.9485C85.4707 10.1984 85.6754 9.59079 86.0868 9.12676C86.4851 8.69419 86.9731 8.4779 87.5539 8.4779C88.1922 8.4779 88.6389 8.68731 88.893 9.1071H88.9131V6.44678H89.9709V11.9591C89.9709 12.4104 89.983 12.8262 90.0082 13.2077ZM88.9131 11.2533V10.4805C88.9131 10.3468 88.903 10.2387 88.8839 10.1561C88.8244 9.90834 88.6963 9.69992 88.5017 9.53181C88.3051 9.36369 88.0681 9.27915 87.7949 9.27915C87.4006 9.27915 87.0921 9.43153 86.8652 9.73728C86.6404 10.043 86.5264 10.4333 86.5264 10.9101C86.5264 11.3683 86.6343 11.7399 86.8511 12.026C87.08 12.3308 87.3885 12.4831 87.7747 12.4831C88.1216 12.4831 88.3989 12.3563 88.6096 12.1017C88.8133 11.8667 88.9131 11.5836 88.9131 11.2533Z"
            fill="white"
        ></path>
        <path
            d="M99.0402 10.8532C99.0402 11.566 98.8315 12.15 98.414 12.6081C97.9764 13.079 97.3977 13.314 96.6727 13.314C95.9759 13.314 95.4203 13.0888 95.0049 12.6366C94.5915 12.1854 94.3848 11.6161 94.3848 10.9299C94.3848 10.2122 94.5975 9.62335 95.0251 9.1662C95.4526 8.70905 96.0273 8.47998 96.7523 8.47998C97.4491 8.47998 98.0107 8.70511 98.4342 9.15637C98.8375 9.59484 99.0402 10.1611 99.0402 10.8532ZM97.9452 10.8867C97.9452 10.459 97.8504 10.0923 97.6618 9.78655C97.439 9.41689 97.1244 9.23207 96.713 9.23207C96.2895 9.23207 95.9668 9.41689 95.744 9.78655C95.5544 10.0923 95.4607 10.4649 95.4607 10.9053C95.4607 11.333 95.5554 11.6997 95.744 12.0054C95.9729 12.3751 96.2915 12.5599 96.7029 12.5599C97.1062 12.5599 97.4239 12.3722 97.6517 11.9956C97.8464 11.684 97.9452 11.3143 97.9452 10.8867Z"
            fill="white"
        ></path>
        <path
            d="M104.726 13.2088H103.67V10.5544C103.67 9.73643 103.352 9.32745 102.711 9.32745C102.398 9.32745 102.145 9.43953 101.949 9.66466C101.753 9.88979 101.656 10.1552 101.656 10.459V13.2078H100.598V9.89864C100.598 9.49163 100.586 9.05021 100.561 8.57241H101.488L101.538 9.29697H101.567C101.691 9.07184 101.874 8.88603 102.114 8.73758C102.402 8.56455 102.721 8.47705 103.073 8.47705C103.516 8.47705 103.885 8.61665 104.178 8.89684C104.544 9.23995 104.726 9.75216 104.726 10.4325V13.2088Z"
            fill="white"
        ></path>
        <path
            d="M111.838 9.34634H110.675V11.5977C110.675 12.1699 110.881 12.456 111.291 12.456C111.48 12.456 111.638 12.4402 111.762 12.4078L111.789 13.1894C111.58 13.266 111.306 13.3044 110.968 13.3044C110.551 13.3044 110.226 13.1805 109.991 12.9328C109.755 12.685 109.638 12.2682 109.638 11.6832V9.34634H108.943V8.57459H109.638V7.72518L110.674 7.42041V8.57361H111.837V9.34634H111.838Z"
            fill="white"
        ></path>
        <path
            d="M117.431 13.2077H116.373V10.5729C116.373 9.7422 116.054 9.32633 115.416 9.32633C114.926 9.32633 114.591 9.5672 114.408 10.0489C114.377 10.1502 114.358 10.2741 114.358 10.4196V13.2067H113.303V6.44678H114.358V9.23982H114.379C114.711 8.73155 115.188 8.4779 115.806 8.4779C116.244 8.4779 116.606 8.61751 116.893 8.89769C117.251 9.2467 117.431 9.76579 117.431 10.452V13.2077Z"
            fill="white"
        ></path>
        <path
            d="M123.204 10.6704C123.204 10.8553 123.19 11.0106 123.165 11.1374H119.996C120.01 11.5956 120.161 11.9446 120.455 12.1864C120.723 12.4027 121.069 12.5108 121.492 12.5108C121.961 12.5108 122.389 12.4381 122.774 12.2916L122.939 13.0073C122.489 13.198 121.958 13.2934 121.344 13.2934C120.608 13.2934 120.028 13.082 119.609 12.6593C119.187 12.2366 118.979 11.6693 118.979 10.9575C118.979 10.2585 119.173 9.67651 119.565 9.21248C119.975 8.71698 120.528 8.46924 121.227 8.46924C121.911 8.46924 122.43 8.71698 122.781 9.21248C123.064 9.60572 123.204 10.0924 123.204 10.6704ZM122.196 10.404C122.204 10.0983 122.135 9.83479 121.991 9.61261C121.808 9.32652 121.529 9.18298 121.15 9.18298C120.806 9.18298 120.524 9.32259 120.31 9.60278C120.134 9.82594 120.03 10.0924 119.996 10.404H122.196Z"
            fill="white"
        ></path>
    </symbol>
    <symbol id="logos-googleplay" viewBox="0 0 137 40">
        <path
            d="M131.835 39.7358H6.01897C3.25227 39.7358 0.986328 37.5235 0.986328 34.8222V5.34079C0.986328 2.63955 3.25227 0.427212 6.01897 0.427212H131.835C134.602 0.427212 136.868 2.63955 136.868 5.34079V34.8222C136.868 37.5235 134.602 39.7358 131.835 39.7358Z"
            fill="#202020"
        ></path>
        <path
            d="M131.835 1.21461C134.165 1.21461 136.061 3.0658 136.061 5.34079V34.8222C136.061 37.0972 134.165 38.9484 131.835 38.9484H6.01897C3.68885 38.9484 1.79281 37.0972 1.79281 34.8222V5.34079C1.79281 3.0658 3.68885 1.21461 6.01897 1.21461H131.835ZM131.835 0.427212H6.01897C3.25227 0.427212 0.986328 2.63955 0.986328 5.34079V34.8222C0.986328 37.5235 3.25227 39.7358 6.01897 39.7358H131.835C134.602 39.7358 136.868 37.5235 136.868 34.8222V5.34079C136.868 2.63955 134.602 0.427212 131.835 0.427212Z"
            fill="#A6A6A6"
        ></path>
        <path
            d="M48.7081 10.4907C48.7081 11.3113 48.4565 11.9685 47.9608 12.4586C47.3908 13.0396 46.6485 13.332 45.7389 13.332C44.8695 13.332 44.1271 13.0347 43.5182 12.4488C42.908 11.8542 42.6035 11.1246 42.6035 10.2512C42.6035 9.3778 42.908 8.64814 43.5182 8.05851C44.1271 7.46765 44.8695 7.17038 45.7389 7.17038C46.1717 7.17038 46.5843 7.2576 46.9781 7.41974C47.3707 7.58312 47.6903 7.80423 47.9218 8.07693L47.3958 8.59532C46.992 8.12976 46.4422 7.90005 45.7389 7.90005C45.1047 7.90005 44.5549 8.11624 44.0881 8.55232C43.6264 8.98963 43.3949 9.55592 43.3949 10.2512C43.3949 10.9465 43.6264 11.5177 44.0881 11.955C44.5549 12.3861 45.1047 12.6073 45.7389 12.6073C46.412 12.6073 46.9781 12.3861 47.4248 11.9501C47.7192 11.6614 47.8865 11.2634 47.9306 10.7548H45.7389V10.0448H48.6628C48.698 10.1984 48.7081 10.347 48.7081 10.4907Z"
            fill="white"
            stroke="white"
            stroke-width="0.16"
            stroke-miterlimit="10"
        ></path>
        <path
            d="M53.3542 8.03648H50.6076V9.90364H53.0837V10.6137H50.6076V12.4808H53.3542V13.2043H49.8301V7.31296H53.3542V8.03648Z"
            fill="white"
            stroke="white"
            stroke-width="0.16"
            stroke-miterlimit="10"
        ></path>
        <path
            d="M56.6243 13.2043H55.8468V8.03648H54.1621V7.31296H58.3103V8.03648H56.6243V13.2043Z"
            fill="white"
            stroke="white"
            stroke-width="0.16"
            stroke-miterlimit="10"
        ></path>
        <path
            d="M61.3105 13.2043V7.31296H62.0868V13.2043H61.3105Z"
            fill="white"
            stroke="white"
            stroke-width="0.16"
            stroke-miterlimit="10"
        ></path>
        <path
            d="M65.5306 13.2043H64.7593V8.03648H63.0684V7.31296H67.2215V8.03648H65.5306V13.2043Z"
            fill="white"
            stroke="white"
            stroke-width="0.16"
            stroke-miterlimit="10"
        ></path>
        <path
            d="M75.078 12.439C74.4829 13.0347 73.7456 13.332 72.8662 13.332C71.9817 13.332 71.2444 13.0347 70.6493 12.439C70.0554 11.8444 69.7598 11.1148 69.7598 10.2512C69.7598 9.38763 70.0554 8.65796 70.6493 8.06342C71.2444 7.46765 71.9817 7.17038 72.8662 7.17038C73.7406 7.17038 74.4779 7.46765 75.073 8.06834C75.6719 8.66779 75.9675 9.39254 75.9675 10.2512C75.9675 11.1148 75.6719 11.8444 75.078 12.439ZM71.2243 11.9451C71.6722 12.3861 72.2169 12.6073 72.8662 12.6073C73.5103 12.6073 74.0602 12.3861 74.503 11.9451C74.9497 11.5042 75.1761 10.9379 75.1761 10.2512C75.1761 9.56452 74.9497 8.99823 74.503 8.55724C74.0602 8.11624 73.5103 7.89513 72.8662 7.89513C72.2169 7.89513 71.6722 8.11624 71.2243 8.55724C70.7776 8.99823 70.5512 9.56452 70.5512 10.2512C70.5512 10.9379 70.7776 11.5042 71.2243 11.9451Z"
            fill="white"
            stroke="white"
            stroke-width="0.16"
            stroke-miterlimit="10"
        ></path>
        <path
            d="M77.0566 13.2043V7.31296H78.0003L80.9343 11.8949H80.9683L80.9343 10.7623V7.31296H81.7106V13.2043H80.9003L77.8279 8.3964H77.7939L77.8279 9.53389V13.2043H77.0566Z"
            fill="white"
            stroke="white"
            stroke-width="0.16"
            stroke-miterlimit="10"
        ></path>
        <path
            d="M69.5668 21.8026C67.2027 21.8026 65.2714 23.5592 65.2714 25.9828C65.2714 28.3868 67.2027 30.1618 69.5668 30.1618C71.9359 30.1618 73.8672 28.3868 73.8672 25.9828C73.8672 23.5592 71.9359 21.8026 69.5668 21.8026ZM69.5668 28.5157C68.2696 28.5157 67.1536 27.4704 67.1536 25.9828C67.1536 24.4755 68.2696 23.4486 69.5668 23.4486C70.8639 23.4486 71.985 24.4755 71.985 25.9828C71.985 27.4704 70.8639 28.5157 69.5668 28.5157ZM60.1947 21.8026C57.8256 21.8026 55.8994 23.5592 55.8994 25.9828C55.8994 28.3868 57.8256 30.1618 60.1947 30.1618C62.5626 30.1618 64.4901 28.3868 64.4901 25.9828C64.4901 23.5592 62.5626 21.8026 60.1947 21.8026ZM60.1947 28.5157C58.8963 28.5157 57.7766 27.4704 57.7766 25.9828C57.7766 24.4755 58.8963 23.4486 60.1947 23.4486C61.4919 23.4486 62.6079 24.4755 62.6079 25.9828C62.6079 27.4704 61.4919 28.5157 60.1947 28.5157ZM49.0424 23.0838V24.86H53.3868C53.2598 25.8526 52.9201 26.5822 52.3992 27.0908C51.7651 27.705 50.7774 28.3867 49.0424 28.3867C46.3688 28.3867 44.2753 26.2801 44.2753 23.6697C44.2753 21.0594 46.3688 18.9527 49.0424 18.9527C50.4881 18.9527 51.5399 19.5042 52.3162 20.2192L53.5982 18.9674C52.5124 17.9552 51.0681 17.1777 49.0424 17.1777C45.3762 17.1777 42.2949 20.0902 42.2949 23.6697C42.2949 27.2493 45.3762 30.1618 49.0424 30.1618C51.024 30.1618 52.5124 29.5279 53.6825 28.3388C54.8815 27.1682 55.2552 25.5221 55.2552 24.193C55.2552 23.7803 55.22 23.4007 55.1571 23.0838H49.0424ZM94.6457 24.4608C94.2921 23.526 93.2013 21.8026 90.9794 21.8026C88.7776 21.8026 86.9445 23.4965 86.9445 25.9828C86.9445 28.3241 88.7587 30.1618 91.1908 30.1618C93.1573 30.1618 94.2921 28.9911 94.7589 28.3094L93.2994 27.3598C92.8125 28.0551 92.1495 28.5157 91.1908 28.5157C90.2383 28.5157 89.5551 28.0895 89.1173 27.2493L94.8432 24.9362L94.6457 24.4608ZM88.8078 25.8526C88.7587 24.2409 90.0899 23.4154 91.0436 23.4154C91.7909 23.4154 92.425 23.7803 92.6364 24.3023L88.8078 25.8526ZM84.1539 29.9075H86.0361V17.6236H84.1539V29.9075ZM81.0714 22.7337H81.0085C80.5857 22.2448 79.7793 21.8026 78.7576 21.8026C76.6137 21.8026 74.6535 23.6402 74.6535 25.9963C74.6535 28.3388 76.6137 30.1618 78.7576 30.1618C79.7793 30.1618 80.5857 29.7159 81.0085 29.2122H81.0714V29.8117C81.0714 31.4098 80.197 32.2685 78.7866 32.2685C77.6366 32.2685 76.9232 31.4577 76.6288 30.776L74.992 31.443C75.4638 32.551 76.7131 33.9145 78.7866 33.9145C80.9934 33.9145 82.8554 32.6468 82.8554 29.5623V22.0568H81.0714V22.7337ZM78.9187 28.5157C77.6215 28.5157 76.5357 27.4556 76.5357 25.9963C76.5357 24.5235 77.6215 23.4486 78.9187 23.4486C80.197 23.4486 81.2047 24.5235 81.2047 25.9963C81.2047 27.4556 80.197 28.5157 78.9187 28.5157ZM103.458 17.6236H98.9561V29.9075H100.833V25.2531H103.458C105.543 25.2531 107.587 23.7803 107.587 21.4377C107.587 19.0964 105.538 17.6236 103.458 17.6236ZM103.507 23.5444H100.833V19.3323H103.507C104.908 19.3323 105.709 20.4685 105.709 21.4377C105.709 22.3885 104.908 23.5444 103.507 23.5444ZM115.111 21.7792C113.755 21.7792 112.344 22.3639 111.764 23.6599L113.43 24.3416C113.789 23.6599 114.448 23.4388 115.145 23.4388C116.119 23.4388 117.106 24.01 117.121 25.0185V25.1475C116.782 24.9558 116.054 24.6721 115.16 24.6721C113.366 24.6721 111.538 25.6364 111.538 27.436C111.538 29.082 113.007 30.1421 114.659 30.1421C115.922 30.1421 116.619 29.5857 117.057 28.9383H117.121V29.8878H118.934V25.1757C118.934 22.9978 117.269 21.7792 115.111 21.7792ZM114.884 28.5108C114.27 28.5108 113.415 28.2135 113.415 27.4704C113.415 26.5196 114.482 26.1548 115.405 26.1548C116.232 26.1548 116.619 26.3329 117.121 26.5675C116.974 27.705 115.971 28.5108 114.884 28.5108ZM125.54 22.0482L123.382 27.3733H123.318L121.087 22.0482H119.063L122.414 29.4898L120.502 33.6308H122.464L127.628 22.0482H125.54ZM108.619 29.9075H110.501V17.6236H108.619V29.9075Z"
            fill="white"
        ></path>
        <path
            d="M11.4883 7.83592C11.1926 8.13811 11.0215 8.60858 11.0215 9.21787V30.9506C11.0215 31.5599 11.1926 32.0304 11.4883 32.3326L11.5612 32.3989L24.0346 20.2255V19.9381L11.5612 7.76468L11.4883 7.83592Z"
            fill="url(#paint0_linear_1788_4519)"
        ></path>
        <path
            d="M28.1942 24.2846L24.041 20.2248V19.9374L28.1992 15.8775L28.2923 15.9303L33.2168 18.666C34.6221 19.4423 34.6221 20.7198 33.2168 21.5011L28.2923 24.2318L28.1942 24.2846Z"
            fill="url(#paint1_linear_1788_4519)"
        ></path>
        <path
            d="M28.2879 24.2346L24.0366 20.0838L11.4902 32.3346C11.957 32.8137 12.7182 32.8714 13.5838 32.3924L28.2879 24.2346Z"
            fill="url(#paint2_linear_1788_4519)"
        ></path>
        <path
            d="M28.2879 15.9337L13.5838 7.77594C12.7182 7.30178 11.957 7.35951 11.4902 7.83858L24.0366 20.0844L28.2879 15.9337Z"
            fill="url(#paint3_linear_1788_4519)"
        ></path>
        <defs>
            <linearGradient
                id="paint0_linear_1788_4519"
                x1="22.9271"
                y1="31.1769"
                x2="6.43954"
                y2="14.2898"
                gradientUnits="userSpaceOnUse"
            >
                <stop stop-color="#00A0FF"></stop>
                <stop offset="0.0066" stop-color="#00A1FF"></stop>
                <stop offset="0.2601" stop-color="#00BEFF"></stop>
                <stop offset="0.5122" stop-color="#00D2FF"></stop>
                <stop offset="0.7604" stop-color="#00DFFF"></stop>
                <stop offset="1" stop-color="#00E3FF"></stop>
            </linearGradient>
            <linearGradient
                id="paint1_linear_1788_4519"
                x1="35.0468"
                y1="20.0797"
                x2="10.6919"
                y2="20.0797"
                gradientUnits="userSpaceOnUse"
            >
                <stop stop-color="#FFE000"></stop>
                <stop offset="0.4087" stop-color="#FFBD00"></stop>
                <stop offset="0.7754" stop-color="#FFA500"></stop>
                <stop offset="1" stop-color="#FF9C00"></stop>
            </linearGradient>
            <linearGradient
                id="paint2_linear_1788_4519"
                x1="25.9762"
                y1="17.8274"
                x2="3.61766"
                y2="-5.07286"
                gradientUnits="userSpaceOnUse"
            >
                <stop stop-color="#FF3A44"></stop>
                <stop offset="1" stop-color="#C31162"></stop>
            </linearGradient>
            <linearGradient
                id="paint3_linear_1788_4519"
                x1="8.33205"
                y1="39.5656"
                x2="18.3161"
                y2="29.3397"
                gradientUnits="userSpaceOnUse"
            >
                <stop stop-color="#32A071"></stop>
                <stop offset="0.0685" stop-color="#2DA771"></stop>
                <stop offset="0.4762" stop-color="#15CF74"></stop>
                <stop offset="0.8009" stop-color="#06E775"></stop>
                <stop offset="1" stop-color="#00F076"></stop>
            </linearGradient>
        </defs>
    </symbol>
    <symbol id="icons-instagram-line" viewBox="0 0 24 24">
        <path
            d="M12.001 9C10.3436 9 9.00098 10.3431 9.00098 12C9.00098 13.6573 10.3441 15 12.001 15C13.6583 15 15.001 13.6569 15.001 12C15.001 10.3427 13.6579 9 12.001 9ZM12.001 7C14.7614 7 17.001 9.2371 17.001 12C17.001 14.7605 14.7639 17 12.001 17C9.24051 17 7.00098 14.7629 7.00098 12C7.00098 9.23953 9.23808 7 12.001 7ZM18.501 6.74915C18.501 7.43926 17.9402 7.99917 17.251 7.99917C16.5609 7.99917 16.001 7.4384 16.001 6.74915C16.001 6.0599 16.5617 5.5 17.251 5.5C17.9393 5.49913 18.501 6.0599 18.501 6.74915ZM12.001 4C9.5265 4 9.12318 4.00655 7.97227 4.0578C7.18815 4.09461 6.66253 4.20007 6.17416 4.38967C5.74016 4.55799 5.42709 4.75898 5.09352 5.09255C4.75867 5.4274 4.55804 5.73963 4.3904 6.17383C4.20036 6.66332 4.09493 7.18811 4.05878 7.97115C4.00703 9.0752 4.00098 9.46105 4.00098 12C4.00098 14.4745 4.00753 14.8778 4.05877 16.0286C4.0956 16.8124 4.2012 17.3388 4.39034 17.826C4.5591 18.2606 4.7605 18.5744 5.09246 18.9064C5.42863 19.2421 5.74179 19.4434 6.17187 19.6094C6.66619 19.8005 7.19148 19.9061 7.97212 19.9422C9.07618 19.9939 9.46203 20 12.001 20C14.4755 20 14.8788 19.9934 16.0296 19.9422C16.8117 19.9055 17.3385 19.7996 17.827 19.6106C18.2604 19.4423 18.5752 19.2402 18.9074 18.9085C19.2436 18.5718 19.4445 18.2594 19.6107 17.8283C19.8013 17.3358 19.9071 16.8098 19.9432 16.0289C19.9949 14.9248 20.001 14.5389 20.001 12C20.001 9.52552 19.9944 9.12221 19.9432 7.97137C19.9064 7.18906 19.8005 6.66149 19.6113 6.17318C19.4434 5.74038 19.2417 5.42635 18.9084 5.09255C18.573 4.75715 18.2616 4.55693 17.8271 4.38942C17.338 4.19954 16.8124 4.09396 16.0298 4.05781C14.9258 4.00605 14.5399 4 12.001 4ZM12.001 2C14.7176 2 15.0568 2.01 16.1235 2.06C17.1876 2.10917 17.9135 2.2775 18.551 2.525C19.2101 2.77917 19.7668 3.1225 20.3226 3.67833C20.8776 4.23417 21.221 4.7925 21.476 5.45C21.7226 6.08667 21.891 6.81333 21.941 7.8775C21.9885 8.94417 22.001 9.28333 22.001 12C22.001 14.7167 21.991 15.0558 21.941 16.1225C21.8918 17.1867 21.7226 17.9125 21.476 18.55C21.2218 19.2092 20.8776 19.7658 20.3226 20.3217C19.7668 20.8767 19.2076 21.22 18.551 21.475C17.9135 21.7217 17.1876 21.89 16.1235 21.94C15.0568 21.9875 14.7176 22 12.001 22C9.28431 22 8.94514 21.99 7.87848 21.94C6.81431 21.8908 6.08931 21.7217 5.45098 21.475C4.79264 21.2208 4.23514 20.8767 3.67931 20.3217C3.12348 19.7658 2.78098 19.2067 2.52598 18.55C2.27848 17.9125 2.11098 17.1867 2.06098 16.1225C2.01348 15.0558 2.00098 14.7167 2.00098 12C2.00098 9.28333 2.01098 8.94417 2.06098 7.8775C2.11014 6.8125 2.27848 6.0875 2.52598 5.45C2.78014 4.79167 3.12348 4.23417 3.67931 3.67833C4.23514 3.1225 4.79348 2.78 5.45098 2.525C6.08848 2.2775 6.81348 2.11 7.87848 2.06C8.94514 2.0125 9.28431 2 12.001 2Z"
        ></path>
    </symbol>
    <symbol id="icons-youtube-line" viewBox="0 0 24 24">
        <path
            d="M19.6069 6.99482C19.5307 6.69695 19.3152 6.47221 19.0684 6.40288C18.6299 6.28062 16.501 6 12.001 6C7.50098 6 5.37252 6.28073 4.93225 6.40323C4.68776 6.47123 4.4723 6.69593 4.3951 6.99482C4.2863 7.41923 4.00098 9.19595 4.00098 12C4.00098 14.804 4.2863 16.5808 4.3954 17.0064C4.47126 17.3031 4.68676 17.5278 4.93251 17.5968C5.37252 17.7193 7.50098 18 12.001 18C16.501 18 18.6299 17.7194 19.0697 17.5968C19.3142 17.5288 19.5297 17.3041 19.6069 17.0052C19.7157 16.5808 20.001 14.8 20.001 12C20.001 9.2 19.7157 7.41923 19.6069 6.99482ZM21.5442 6.49818C22.001 8.28 22.001 12 22.001 12C22.001 12 22.001 15.72 21.5442 17.5018C21.2897 18.4873 20.547 19.2618 19.6056 19.5236C17.8971 20 12.001 20 12.001 20C12.001 20 6.10837 20 4.39637 19.5236C3.45146 19.2582 2.70879 18.4836 2.45774 17.5018C2.00098 15.72 2.00098 12 2.00098 12C2.00098 12 2.00098 8.28 2.45774 6.49818C2.71227 5.51273 3.45495 4.73818 4.39637 4.47636C6.10837 4 12.001 4 12.001 4C12.001 4 17.8971 4 19.6056 4.47636C20.5505 4.74182 21.2932 5.51636 21.5442 6.49818ZM10.001 15.5V8.5L16.001 12L10.001 15.5Z"
        ></path>
    </symbol>
    <symbol id="icons-flipboard-line" viewBox="0 0 24 24">
        <path
            d="M13.9861 10.1997H17.5852V6.60059H6.78638V17.3994H10.3855V13.8003H13.9861V10.1997Z"
        ></path>
        <path
            d="M4 3H20C20.2652 3 20.5196 3.10536 20.7071 3.29289C20.8946 3.48043 21 3.73478 21 4V20C21 20.2652 20.8946 20.5196 20.7071 20.7071C20.5196 20.8946 20.2652 21 20 21H4C3.73478 21 3.48043 20.8946 3.29289 20.7071C3.10536 20.5196 3 20.2652 3 20V4C3 3.73478 3.10536 3.48043 3.29289 3.29289C3.48043 3.10536 3.73478 3 4 3ZM5 5V19H19V5H5Z"
        ></path>
    </symbol>
    <symbol id="icons-confetti" viewBox="0 0 512 512">
        <path style="fill:#E65C64;"
            d="M367.178,314.667h-58.358c-9.223,0-16.697-7.474-16.697-16.697c0-9.223,7.474-16.697,16.697-16.697
        h58.358c9.223,0,16.697,7.474,16.697,16.697C383.875,307.194,376.401,314.667,367.178,314.667z" />
        <path style="fill:#F26D76;"
            d="M214.366,220.219c-9.223,0-16.697-7.474-16.697-16.697v-58.358c0-9.223,7.474-16.697,16.697-16.697
        c9.223,0,16.697,7.474,16.697,16.697v58.358C231.063,212.745,223.589,220.219,214.366,220.219z" />
        <path style="fill:#FFC033;"
            d="M241.006,14.693c-19.48-19.591-51.314-19.591-70.794,0c-19.48,19.48-19.48,51.315,0,70.795
        c9.461,9.462,22.04,14.693,35.396,14.693s25.937-5.232,35.397-14.693C260.599,66.009,260.599,34.173,241.006,14.693z
         M217.459,61.809c-6.78,6.78-17.183,6.508-23.632,0.07c-6.392-6.392-6.392-17.186,0-23.578c6.564-6.59,17.102-6.49,23.502-0.066
        C224.127,45.001,223.762,55.546,217.459,61.809z" />
        <circle style="fill:#43BFBF;" cx="426.886" cy="203.525" r="16.697" />
        <circle style="fill:#36D9D9;" cx="308.816" cy="85.455" r="16.697" />
        <circle style="fill:#43BFBF;" cx="426.886" cy="392.424" r="16.697" />
        <circle style="fill:#36D9D9;" cx="119.918" cy="85.455" r="16.697" />
        <path style="fill:#FFC033;"
            d="M443.585,52.059c-9.223,0-16.697-7.474-16.697-16.697V18.665c0-9.223,7.474-16.697,16.697-16.697
        c9.223,0,16.697,7.474,16.697,16.697v16.697C460.282,44.585,452.809,52.059,443.585,52.059z" />
        <path style="fill:#F9A926;"
            d="M443.585,135.544c-9.223,0-16.697-7.474-16.697-16.697V102.15c0-9.223,7.474-16.697,16.697-16.697
        c9.223,0,16.697,7.474,16.697,16.697v16.697C460.282,128.07,452.809,135.544,443.585,135.544z" />
        <path style="fill:#FFC033;"
            d="M410.191,85.453h-16.697c-9.223,0-16.697-7.474-16.697-16.697s7.474-16.697,16.697-16.697h16.697
        c9.223,0,16.697,7.474,16.697,16.697S419.415,85.453,410.191,85.453z" />
        <g>
            <path style="fill:#F9A926;"
                d="M493.676,85.453h-16.697c-9.223,0-16.697-7.474-16.697-16.697s7.474-16.697,16.697-16.697h16.697
            c9.218,0,16.697,7.474,16.697,16.697S502.894,85.453,493.676,85.453z" />
            <path style="fill:#F9A926;"
                d="M497.027,259.583c-19.48-19.591-51.314-19.591-70.794,0c-19.48,19.48-19.48,51.315,0,70.795
            c9.461,9.462,22.04,14.693,35.397,14.693s25.937-5.232,35.397-14.693C516.619,310.898,516.619,279.062,497.027,259.583z
             M473.48,306.693c-6.752,6.763-17.152,6.545-23.632,0.076c-6.392-6.392-6.392-17.186,0-23.578c6.564-6.59,17.102-6.49,23.502-0.066
            C480.12,289.871,479.812,300.401,473.48,306.693z" />
        </g>
        <path style="fill:#FFC033;"
            d="M268.512,260.527c-4.272,0-8.544-1.631-11.805-4.892c-6.522-6.516-6.522-17.093,0-23.611
        l104.232-104.232c6.522-6.522,17.089-6.522,23.611,0c6.522,6.516,6.522,17.093,0,23.611L280.318,255.634
        C277.056,258.896,272.784,260.527,268.512,260.527z" />
        <path style="fill:#F9A926;"
            d="M256.706,255.634c3.261,3.261,7.534,4.892,11.805,4.892c4.271,0,8.544-1.631,11.805-4.892
        l104.232-104.232c6.522-6.516,6.522-17.093,0-23.611L256.706,255.634L256.706,255.634z" />
        <path style="fill:#F26D76;"
            d="M129.919,426.074v47.141L22.557,511.017c-6.601,2.326-13.068,0.323-17.32-3.907
        c-4.286-4.263-6.311-10.764-3.974-17.398L39.11,382.472h47.252l21.739,21.762L129.919,426.074z" />
        <path style="fill:#E65C64;"
            d="M129.919,426.074v47.141L22.557,511.017c-6.601,2.326-13.068,0.323-17.32-3.907l102.865-102.876
        L129.919,426.074z" />
        <path style="fill:#F26D76;"
            d="M82.274,319.365l110.819,110.861h58.73l62.54-22.04c8.706-3.125,13.243-12.584,10.24-21.372
        L125.465,187.786c-8.66-3.109-18.251,1.434-21.261,10.13l-21.93,62.132v59.318H82.274z" />
        <path style="fill:#E65C64;"
            d="M193.093,430.226h58.73l62.54-22.04c8.706-3.125,13.243-12.584,10.24-21.372l-99.565-99.511
        l-87.423,87.423L193.093,430.226z" />
        <path style="fill:#FFC033;"
            d="M82.162,260.25L39.086,382.473l90.831,90.72l0.334-0.111l121.776-42.967L82.162,260.25z" />
        <polygon style="fill:#F9A926;"
            points="129.917,473.193 130.251,473.082 252.026,430.115 167.127,345.215 84.504,427.836 " />
        <path style="fill:#36D9D9;"
            d="M332.436,432.736c-4.272,0-8.544-1.631-11.805-4.892L84.496,191.712
        c-6.522-6.516-6.522-17.093,0-23.611c6.522-6.522,17.089-6.522,23.611,0l236.133,236.133c6.522,6.516,6.522,17.093,0,23.611
        C340.979,431.105,336.708,432.736,332.436,432.736z" />
        <path style="fill:#43BFBF;"
            d="M320.63,427.844c3.261,3.261,7.534,4.892,11.805,4.892s8.544-1.631,11.805-4.892
        c6.522-6.516,6.522-17.093,0-23.611L226.174,286.168l-23.611,23.611L320.63,427.844z" />
    </symbol>
</svg>
  